<svg width="21" height="22" viewBox="0 0 21 22" fill="none" xmlns="http://www.w3.org/2000/svg">
<path d="M17.5 11.8749C17.5 16.2499 14.4375 18.4374 10.7975 19.7062C10.6069 19.7707 10.3998 19.7677 10.2113 19.6974C6.5625 18.4374 3.5 16.2499 3.5 11.8749V5.7499C3.5 5.51784 3.59219 5.29528 3.75628 5.13119C3.92038 4.96709 4.14294 4.8749 4.375 4.8749C6.125 4.8749 8.3125 3.8249 9.835 2.49491C10.0204 2.33653 10.2562 2.24951 10.5 2.24951C10.7438 2.24951 10.9796 2.33653 11.165 2.49491C12.6963 3.83365 14.875 4.8749 16.625 4.8749C16.8571 4.8749 17.0796 4.96709 17.2437 5.13119C17.4078 5.29528 17.5 5.51784 17.5 5.7499V11.8749Z" stroke="#51A2FF" stroke-width="1.75" stroke-linecap="round" stroke-linejoin="round"/>
</svg>
