<svg width="28" height="28" viewBox="0 0 28 28" fill="none" xmlns="http://www.w3.org/2000/svg">
<path d="M23.3333 9.33325H4.66667C4.02233 9.33325 3.5 9.85559 3.5 10.4999V12.8333C3.5 13.4776 4.02233 13.9999 4.66667 13.9999H23.3333C23.9777 13.9999 24.5 13.4776 24.5 12.8333V10.4999C24.5 9.85559 23.9777 9.33325 23.3333 9.33325Z" stroke="#FB64B6" stroke-width="2.33333" stroke-linecap="round" stroke-linejoin="round"/>
<path d="M14 9.33325V24.4999" stroke="#FB64B6" stroke-width="2.33333" stroke-linecap="round" stroke-linejoin="round"/>
<path d="M22.1667 14V22.1667C22.1667 22.7855 21.9208 23.379 21.4833 23.8166C21.0457 24.2542 20.4522 24.5 19.8333 24.5H8.16668C7.54784 24.5 6.95435 24.2542 6.51676 23.8166C6.07918 23.379 5.83334 22.7855 5.83334 22.1667V14" stroke="#FB64B6" stroke-width="2.33333" stroke-linecap="round" stroke-linejoin="round"/>
<path d="M8.75001 9.33335C7.97646 9.33335 7.2346 9.02606 6.68762 8.47908C6.14063 7.9321 5.83334 7.19024 5.83334 6.41669C5.83334 5.64314 6.14063 4.90127 6.68762 4.35429C7.2346 3.80731 7.97646 3.50002 8.75001 3.50002C9.87548 3.48041 10.9784 4.02649 11.9149 5.06704C12.8514 6.10759 13.578 7.59433 14 9.33335C14.422 7.59433 15.1487 6.10759 16.0852 5.06704C17.0216 4.02649 18.1245 3.48041 19.25 3.50002C20.0236 3.50002 20.7654 3.80731 21.3124 4.35429C21.8594 4.90127 22.1667 5.64314 22.1667 6.41669C22.1667 7.19024 21.8594 7.9321 21.3124 8.47908C20.7654 9.02606 20.0236 9.33335 19.25 9.33335" stroke="#FB64B6" stroke-width="2.33333" stroke-linecap="round" stroke-linejoin="round"/>
</svg>
