<svg width="21" height="22" viewBox="0 0 21 22" fill="none" xmlns="http://www.w3.org/2000/svg">
<path d="M10.5 18V19.75" stroke="#05DF72" stroke-width="1.75" stroke-linecap="round" stroke-linejoin="round"/>
<path d="M10.5 2.25V4" stroke="#05DF72" stroke-width="1.75" stroke-linecap="round" stroke-linejoin="round"/>
<path d="M14.875 18V19.75" stroke="#05DF72" stroke-width="1.75" stroke-linecap="round" stroke-linejoin="round"/>
<path d="M14.875 2.25V4" stroke="#05DF72" stroke-width="1.75" stroke-linecap="round" stroke-linejoin="round"/>
<path d="M1.75 11H3.5" stroke="#05DF72" stroke-width="1.75" stroke-linecap="round" stroke-linejoin="round"/>
<path d="M1.75 15.375H3.5" stroke="#05DF72" stroke-width="1.75" stroke-linecap="round" stroke-linejoin="round"/>
<path d="M1.75 6.625H3.5" stroke="#05DF72" stroke-width="1.75" stroke-linecap="round" stroke-linejoin="round"/>
<path d="M17.5 11H19.25" stroke="#05DF72" stroke-width="1.75" stroke-linecap="round" stroke-linejoin="round"/>
<path d="M17.5 15.375H19.25" stroke="#05DF72" stroke-width="1.75" stroke-linecap="round" stroke-linejoin="round"/>
<path d="M17.5 6.625H19.25" stroke="#05DF72" stroke-width="1.75" stroke-linecap="round" stroke-linejoin="round"/>
<path d="M6.125 18V19.75" stroke="#05DF72" stroke-width="1.75" stroke-linecap="round" stroke-linejoin="round"/>
<path d="M6.125 2.25V4" stroke="#05DF72" stroke-width="1.75" stroke-linecap="round" stroke-linejoin="round"/>
<path d="M15.75 4H5.25C4.2835 4 3.5 4.7835 3.5 5.75V16.25C3.5 17.2165 4.2835 18 5.25 18H15.75C16.7165 18 17.5 17.2165 17.5 16.25V5.75C17.5 4.7835 16.7165 4 15.75 4Z" stroke="#05DF72" stroke-width="1.75" stroke-linecap="round" stroke-linejoin="round"/>
<path d="M13.125 7.5H7.875C7.39175 7.5 7 7.89175 7 8.375V13.625C7 14.1082 7.39175 14.5 7.875 14.5H13.125C13.6082 14.5 14 14.1082 14 13.625V8.375C14 7.89175 13.6082 7.5 13.125 7.5Z" stroke="#05DF72" stroke-width="1.75" stroke-linecap="round" stroke-linejoin="round"/>
</svg>
