<svg width="14" height="11" viewBox="0 0 14 11" fill="none" xmlns="http://www.w3.org/2000/svg">
<path d="M6.99993 8.59372C5.34072 8.59372 3.9976 7.33238 3.874 5.73396L1.57932 3.99224C1.27767 4.36392 1.00007 4.75686 0.776075 5.18655C0.726035 5.28376 0.699962 5.39117 0.699962 5.50011C0.699962 5.60904 0.726035 5.71645 0.776075 5.81367C1.96235 8.08691 4.31085 9.62496 6.99993 9.62496C7.58859 9.62496 8.15646 9.53902 8.70377 9.40023L7.56868 8.53765C7.38122 8.57321 7.19085 8.59198 6.99993 8.59372ZM13.8647 9.84195L11.4464 8.00634C12.181 7.39832 12.7852 6.6529 13.2238 5.81345C13.2738 5.71624 13.2999 5.60883 13.2999 5.49989C13.2999 5.39096 13.2738 5.28355 13.2238 5.18633C12.0375 2.91309 9.68902 1.37504 6.99993 1.37504C5.8737 1.37638 4.76576 1.65485 3.77732 2.18499L0.994387 0.072458C0.958097 0.0447236 0.916598 0.0242842 0.872262 0.0123078C0.827926 0.000331346 0.781622 -0.00294731 0.735995 0.00265914C0.690368 0.0082656 0.646313 0.0226473 0.606348 0.0449823C0.566383 0.0673174 0.53129 0.097168 0.503076 0.132828L0.0736712 0.675733C0.0167086 0.747702 -0.00881604 0.838944 0.0027112 0.929394C0.0142384 1.01984 0.0618735 1.10209 0.13514 1.15805L13.0055 10.9275C13.0418 10.9553 13.0833 10.9757 13.1276 10.9877C13.1719 10.9997 13.2182 11.0029 13.2639 10.9973C13.3095 10.9917 13.3535 10.9774 13.3935 10.955C13.4335 10.9327 13.4686 10.9028 13.4968 10.8672L13.9264 10.3243C13.9833 10.2523 14.0088 10.161 13.9973 10.0706C13.9857 9.98011 13.938 9.89788 13.8647 9.84195ZM9.84586 6.7912L8.98617 6.13851C9.05857 5.93301 9.09698 5.71744 9.09992 5.5C9.10419 5.18166 9.03238 4.86678 8.89027 4.58064C8.74815 4.2945 8.53969 4.04508 8.28162 3.85243C8.02355 3.65977 7.72308 3.52924 7.40433 3.47132C7.08558 3.41341 6.75744 3.42972 6.44628 3.51895C6.57818 3.69449 6.64954 3.90684 6.64993 4.12501C6.64667 4.19762 6.63537 4.26965 6.61624 4.33986L5.00603 3.11762C5.56537 2.65855 6.271 2.40681 6.99993 2.40628C7.41366 2.40606 7.82337 2.48592 8.20565 2.64132C8.58793 2.79671 8.93527 3.02458 9.22782 3.31191C9.52037 3.59923 9.75239 3.94037 9.91061 4.31582C10.0688 4.69127 10.1502 5.09366 10.1499 5.5C10.1499 5.9647 10.0342 6.39782 9.84586 6.79141V6.7912Z" fill="#078698"/>
</svg>
