<svg width="15" height="15" viewBox="0 0 15 15" fill="none" xmlns="http://www.w3.org/2000/svg">
<path d="M1.70284 7.95297C1.65423 7.822 1.65423 7.67793 1.70284 7.54697C2.17634 6.39888 2.98006 5.41724 4.01213 4.72649C5.04419 4.03574 6.25812 3.66699 7.50001 3.66699C8.7419 3.66699 9.95583 4.03574 10.9879 4.72649C12.02 5.41724 12.8237 6.39888 13.2972 7.54697C13.3458 7.67793 13.3458 7.822 13.2972 7.95297C12.8237 9.10105 12.02 10.0827 10.9879 10.7734C9.95583 11.4642 8.7419 11.8329 7.50001 11.8329C6.25812 11.8329 5.04419 11.4642 4.01213 10.7734C2.98006 10.0827 2.17634 9.10105 1.70284 7.95297Z" stroke="#00D3F2" stroke-opacity="0.6" stroke-width="1.16667" stroke-linecap="round" stroke-linejoin="round"/>
<path d="M7.5 9.5C8.4665 9.5 9.25 8.7165 9.25 7.75C9.25 6.7835 8.4665 6 7.5 6C6.5335 6 5.75 6.7835 5.75 7.75C5.75 8.7165 6.5335 9.5 7.5 9.5Z" stroke="#00D3F2" stroke-opacity="0.6" stroke-width="1.16667" stroke-linecap="round" stroke-linejoin="round"/>
</svg>
