<svg width="15" height="15" viewBox="0 0 15 15" fill="none" xmlns="http://www.w3.org/2000/svg">
<path d="M11.5833 7.16675H3.41667C2.77233 7.16675 2.25 7.68908 2.25 8.33341V12.4167C2.25 13.0611 2.77233 13.5834 3.41667 13.5834H11.5833C12.2277 13.5834 12.75 13.0611 12.75 12.4167V8.33341C12.75 7.68908 12.2277 7.16675 11.5833 7.16675Z" stroke="#00D3F2" stroke-opacity="0.6" stroke-width="1.16667" stroke-linecap="round" stroke-linejoin="round"/>
<path d="M4.58333 7.16675V4.83341C4.58333 4.05987 4.89062 3.318 5.4376 2.77102C5.98458 2.22404 6.72645 1.91675 7.49999 1.91675C8.27354 1.91675 9.01541 2.22404 9.56239 2.77102C10.1094 3.318 10.4167 4.05987 10.4167 4.83341V7.16675" stroke="#00D3F2" stroke-opacity="0.6" stroke-width="1.16667" stroke-linecap="round" stroke-linejoin="round"/>
</svg>
