<svg width="56" height="56" viewBox="0 0 56 56" fill="none" xmlns="http://www.w3.org/2000/svg">
<path d="M28 54.6C37.2784 54.6 44.8 53.3464 44.8 51.8C44.8 50.2536 37.2784 49 28 49C18.7216 49 11.2 50.2536 11.2 51.8C11.2 53.3464 18.7216 54.6 28 54.6Z" fill="black" fill-opacity="0.2"/>
<path d="M28 49C34.9588 49 40.6 44.6124 40.6 39.2C40.6 33.7876 34.9588 29.4 28 29.4C21.0412 29.4 15.4 33.7876 15.4 39.2C15.4 44.6124 21.0412 49 28 49Z" fill="url(#paint0_linear_8_878)"/>
<path d="M28 33.6C34.1856 33.6 39.2 28.5856 39.2 22.4C39.2 16.2144 34.1856 11.2 28 11.2C21.8144 11.2 16.8 16.2144 16.8 22.4C16.8 28.5856 21.8144 33.6 28 33.6Z" fill="url(#paint1_linear_8_878)"/>
<path d="M23.9583 21.7442C26.481 20.5678 27.2016 16.7738 25.5678 13.27C23.9339 9.76622 20.5644 7.87948 18.0417 9.05584C15.5189 10.2322 14.7984 14.0262 16.4322 17.53C18.066 21.0338 21.4356 22.9205 23.9583 21.7442Z" fill="url(#paint2_linear_8_878)"/>
<path d="M32.0417 21.7442C34.5644 22.9205 37.934 21.0338 39.5678 17.53C41.2017 14.0262 40.4811 10.2322 37.9584 9.05584C35.4356 7.87948 32.0661 9.76622 30.4322 13.27C28.7984 16.7738 29.519 20.5678 32.0417 21.7442Z" fill="url(#paint3_linear_8_878)"/>
<path d="M22.775 20.0465C24.1765 19.393 24.518 17.1589 23.5377 15.0567C22.5574 12.9544 20.6266 11.78 19.225 12.4335C17.8235 13.087 17.4821 15.3211 18.4624 17.4233C19.4427 19.5256 21.3735 20.7 22.775 20.0465Z" fill="#1E2939"/>
<path d="M33.225 20.0465C34.6265 20.7 36.5574 19.5256 37.5377 17.4233C38.518 15.3211 38.1765 13.087 36.775 12.4335C35.3735 11.78 33.4427 12.9544 32.4624 15.0567C31.4821 17.1589 31.8235 19.393 33.225 20.0465Z" fill="#1E2939"/>
<path opacity="0.9" d="M28 26.6C31.866 26.6 35 24.0928 35 21C35 17.9072 31.866 15.4 28 15.4C24.134 15.4 21 17.9072 21 21C21 24.0928 24.134 26.6 28 26.6Z" fill="#F8FAFC"/>
<path d="M24.64 24.36C26.4957 24.36 28 22.8557 28 21C28 19.1443 26.4957 17.64 24.64 17.64C22.7844 17.64 21.28 19.1443 21.28 21C21.28 22.8557 22.7844 24.36 24.64 24.36Z" fill="url(#paint4_radial_8_878)"/>
<path d="M31.36 24.36C33.2157 24.36 34.72 22.8557 34.72 21C34.72 19.1443 33.2157 17.64 31.36 17.64C29.5043 17.64 28 19.1443 28 21C28 22.8557 29.5043 24.36 31.36 24.36Z" fill="url(#paint5_radial_8_878)"/>
<path d="M23.8 21.28C24.4186 21.28 24.92 20.7786 24.92 20.16C24.92 19.5414 24.4186 19.04 23.8 19.04C23.1814 19.04 22.68 19.5414 22.68 20.16C22.68 20.7786 23.1814 21.28 23.8 21.28Z" fill="white"/>
<path d="M30.52 21.28C31.1386 21.28 31.64 20.7786 31.64 20.16C31.64 19.5414 31.1386 19.04 30.52 19.04C29.9015 19.04 29.4 19.5414 29.4 20.16C29.4 20.7786 29.9015 21.28 30.52 21.28Z" fill="white"/>
<path d="M24.36 20.16C24.6693 20.16 24.92 19.9093 24.92 19.6C24.92 19.2907 24.6693 19.04 24.36 19.04C24.0507 19.04 23.8 19.2907 23.8 19.6C23.8 19.9093 24.0507 20.16 24.36 20.16Z" fill="white"/>
<path d="M31.08 20.16C31.3893 20.16 31.64 19.9093 31.64 19.6C31.64 19.2907 31.3893 19.04 31.08 19.04C30.7707 19.04 30.52 19.2907 30.52 19.6C30.52 19.9093 30.7707 20.16 31.08 20.16Z" fill="white"/>
<path opacity="0.8" d="M28 25.2C33.4124 25.2 37.8 23.3196 37.8 21C37.8 18.6804 33.4124 16.8 28 16.8C22.5876 16.8 18.2 18.6804 18.2 21C18.2 23.3196 22.5876 25.2 28 25.2Z" stroke="#00C950" stroke-width="0.84"/>
<path d="M36.4 19.6H19.6C18.8268 19.6 18.2 20.2268 18.2 21C18.2 21.7732 18.8268 22.4 19.6 22.4H36.4C37.1732 22.4 37.8 21.7732 37.8 21C37.8 20.2268 37.1732 19.6 36.4 19.6Z" fill="#00C950" fill-opacity="0.2"/>
<path d="M28 25.48C28.6186 25.48 29.12 25.1039 29.12 24.64C29.12 24.1761 28.6186 23.8 28 23.8C27.3814 23.8 26.88 24.1761 26.88 24.64C26.88 25.1039 27.3814 25.48 28 25.48Z" fill="url(#paint6_linear_8_878)"/>
<path d="M26.6 26.6C27.5333 27.5333 28.4666 27.5333 29.4 26.6" stroke="#1E2939" stroke-width="0.56" stroke-linecap="round"/>
<path d="M21 50.4C22.2371 50.4 23.24 48.5196 23.24 46.2C23.24 43.8804 22.2371 42 21 42C19.7629 42 18.76 43.8804 18.76 46.2C18.76 48.5196 19.7629 50.4 21 50.4Z" fill="url(#paint7_linear_8_878)"/>
<path d="M35 50.4C36.2371 50.4 37.24 48.5196 37.24 46.2C37.24 43.8804 36.2371 42 35 42C33.7629 42 32.76 43.8804 32.76 46.2C32.76 48.5196 33.7629 50.4 35 50.4Z" fill="url(#paint8_linear_8_878)"/>
<path d="M21 50.68C21.9278 50.68 22.68 49.9278 22.68 49C22.68 48.0722 21.9278 47.32 21 47.32C20.0722 47.32 19.32 48.0722 19.32 49C19.32 49.9278 20.0722 50.68 21 50.68Z" fill="#1E2939"/>
<path d="M35 50.68C35.9278 50.68 36.68 49.9278 36.68 49C36.68 48.0722 35.9278 47.32 35 47.32C34.0722 47.32 33.32 48.0722 33.32 49C33.32 49.9278 34.0722 50.68 35 50.68Z" fill="#1E2939"/>
<path d="M36.216 37.9839C37.5281 39.2961 39.301 39.6507 40.1758 38.7759C41.0505 37.9011 40.696 36.1283 39.3838 34.8161C38.0717 33.5039 36.2988 33.1494 35.424 34.0241C34.5492 34.8989 34.9038 36.6718 36.216 37.9839Z" fill="url(#paint9_linear_8_878)"/>
<path opacity="0.8" d="M29.68 14H26.32C25.7015 14 25.2 14.5014 25.2 15.12C25.2 15.7386 25.7015 16.24 26.32 16.24H29.68C30.2986 16.24 30.8 15.7386 30.8 15.12C30.8 14.5014 30.2986 14 29.68 14Z" fill="#00C950"/>
<path d="M26.6 15.68C26.9093 15.68 27.16 15.4293 27.16 15.12C27.16 14.8107 26.9093 14.56 26.6 14.56C26.2907 14.56 26.04 14.8107 26.04 15.12C26.04 15.4293 26.2907 15.68 26.6 15.68Z" fill="white"/>
<path d="M29.4 15.68C29.7093 15.68 29.96 15.4293 29.96 15.12C29.96 14.8107 29.7093 14.56 29.4 14.56C29.0907 14.56 28.84 14.8107 28.84 15.12C28.84 15.4293 29.0907 15.68 29.4 15.68Z" fill="white"/>
<g opacity="0.6">
<path d="M8.39997 11.2L8.95997 12.32H10.08L9.23997 13.16L9.51997 14.28L8.39997 13.44L7.27997 14.28L7.55997 13.16L6.71997 12.32H7.83997L8.39997 11.2Z" fill="#FBBF24"/>
<path d="M44.8 30.8L45.36 31.92H46.48L45.64 32.76L45.92 33.88L44.8 33.04L43.68 33.88L43.96 32.76L43.12 31.92H44.24L44.8 30.8Z" fill="#06D6A0"/>
</g>
<defs>
<linearGradient id="paint0_linear_8_878" x1="15.4" y1="29.4" x2="1915.09" y2="2471.86" gradientUnits="userSpaceOnUse">
<stop stop-color="#22D3EE"/>
<stop offset="0.5" stop-color="#3B82F6"/>
<stop offset="1" stop-color="#8B5CF6"/>
</linearGradient>
<linearGradient id="paint1_linear_8_878" x1="16.8" y1="11.2" x2="2256.8" y2="2251.2" gradientUnits="userSpaceOnUse">
<stop stop-color="#22D3EE"/>
<stop offset="0.5" stop-color="#3B82F6"/>
<stop offset="1" stop-color="#8B5CF6"/>
</linearGradient>
<linearGradient id="paint2_linear_8_878" x1="13.4739" y1="11.1858" x2="1620.79" y2="316.459" gradientUnits="userSpaceOnUse">
<stop stop-color="#FF4500"/>
<stop offset="1" stop-color="#EC4899"/>
</linearGradient>
<linearGradient id="paint3_linear_8_878" x1="33.3906" y1="6.92585" x2="832.705" y2="1434.43" gradientUnits="userSpaceOnUse">
<stop stop-color="#FF4500"/>
<stop offset="1" stop-color="#EC4899"/>
</linearGradient>
<radialGradient id="paint4_radial_8_878" cx="0" cy="0" r="1" gradientUnits="userSpaceOnUse" gradientTransform="translate(357.28 219.24) scale(3.36)">
<stop stop-color="#06B6D4"/>
<stop offset="0.7" stop-color="#1E40AF"/>
<stop offset="1" stop-color="#312E81"/>
</radialGradient>
<radialGradient id="paint5_radial_8_878" cx="0" cy="0" r="1" gradientUnits="userSpaceOnUse" gradientTransform="translate(364 219.24) scale(3.36)">
<stop stop-color="#06B6D4"/>
<stop offset="0.7" stop-color="#1E40AF"/>
<stop offset="1" stop-color="#312E81"/>
</radialGradient>
<linearGradient id="paint6_linear_8_878" x1="26.88" y1="23.8" x2="188.16" y2="238.84" gradientUnits="userSpaceOnUse">
<stop stop-color="#EC4899"/>
<stop offset="1" stop-color="#BE185D"/>
</linearGradient>
<linearGradient id="paint7_linear_8_878" x1="18.76" y1="42" x2="716.338" y2="414.042" gradientUnits="userSpaceOnUse">
<stop stop-color="#22D3EE"/>
<stop offset="0.5" stop-color="#3B82F6"/>
<stop offset="1" stop-color="#8B5CF6"/>
</linearGradient>
<linearGradient id="paint8_linear_8_878" x1="32.76" y1="42" x2="730.338" y2="414.042" gradientUnits="userSpaceOnUse">
<stop stop-color="#22D3EE"/>
<stop offset="0.5" stop-color="#3B82F6"/>
<stop offset="1" stop-color="#8B5CF6"/>
</linearGradient>
<linearGradient id="paint9_linear_8_878" x1="37.0079" y1="32.4402" x2="-109.2" y2="763.48" gradientUnits="userSpaceOnUse">
<stop stop-color="#22D3EE"/>
<stop offset="0.5" stop-color="#3B82F6"/>
<stop offset="1" stop-color="#8B5CF6"/>
</linearGradient>
</defs>
</svg>
