<svg width="85" height="85" viewBox="0 0 85 85" fill="none" xmlns="http://www.w3.org/2000/svg">
<path d="M42.5 82.37C56.4176 82.37 67.7 80.4896 67.7 78.17C67.7 75.8504 56.4176 73.97 42.5 73.97C28.5824 73.97 17.3 75.8504 17.3 78.17C17.3 80.4896 28.5824 82.37 42.5 82.37Z" fill="black" fill-opacity="0.2"/>
<path d="M42.5 73.97C52.9382 73.97 61.4 67.3886 61.4 59.27C61.4 51.1514 52.9382 44.57 42.5 44.57C32.0618 44.57 23.6 51.1514 23.6 59.27C23.6 67.3886 32.0618 73.97 42.5 73.97Z" fill="url(#paint0_linear_8_1123)"/>
<path d="M42.5 50.87C51.7784 50.87 59.3 43.3484 59.3 34.07C59.3 24.7916 51.7784 17.27 42.5 17.27C33.2216 17.27 25.7 24.7916 25.7 34.07C25.7 43.3484 33.2216 50.87 42.5 50.87Z" fill="url(#paint1_linear_8_1123)"/>
<path d="M36.4375 33.0862C40.2216 31.3217 41.3024 25.6307 38.8517 20.375C36.4009 15.1193 31.3466 12.2892 27.5625 14.0538C23.7784 15.8183 22.6975 21.5093 25.1483 26.765C27.5991 32.0207 32.6534 34.8508 36.4375 33.0862Z" fill="url(#paint2_linear_8_1123)"/>
<path d="M48.5625 33.0862C52.3466 34.8508 57.4009 32.0207 59.8517 26.765C62.3025 21.5093 61.2216 15.8183 57.4375 14.0538C53.6534 12.2892 48.5991 15.1193 46.1483 20.375C43.6976 25.6307 44.7784 31.3217 48.5625 33.0862Z" fill="url(#paint3_linear_8_1123)"/>
<path d="M34.6625 30.5397C36.7648 29.5594 37.2769 26.2084 35.8065 23.055C34.336 19.9016 31.4398 18.14 29.3375 19.1203C27.2352 20.1006 26.723 23.4516 28.1935 26.605C29.664 29.7584 32.5602 31.5201 34.6625 30.5397Z" fill="#1E2939"/>
<path d="M50.3375 30.5398C52.4398 31.5201 55.3361 29.7584 56.8065 26.605C58.277 23.4516 57.7648 20.1006 55.6625 19.1203C53.5602 18.14 50.664 19.9016 49.1935 23.055C47.7231 26.2084 48.2353 29.5594 50.3375 30.5398Z" fill="#1E2939"/>
<path opacity="0.9" d="M42.5 40.37C48.299 40.37 53 36.6092 53 31.97C53 27.3308 48.299 23.57 42.5 23.57C36.701 23.57 32 27.3308 32 31.97C32 36.6092 36.701 40.37 42.5 40.37Z" fill="#F8FAFC"/>
<path d="M37.46 37.01C40.2435 37.01 42.5 34.7535 42.5 31.97C42.5 29.1865 40.2435 26.93 37.46 26.93C34.6765 26.93 32.42 29.1865 32.42 31.97C32.42 34.7535 34.6765 37.01 37.46 37.01Z" fill="url(#paint4_radial_8_1123)"/>
<path d="M47.54 37.01C50.3235 37.01 52.58 34.7535 52.58 31.97C52.58 29.1865 50.3235 26.93 47.54 26.93C44.7565 26.93 42.5 29.1865 42.5 31.97C42.5 34.7535 44.7565 37.01 47.54 37.01Z" fill="url(#paint5_radial_8_1123)"/>
<path d="M36.2 32.39C37.1279 32.39 37.88 31.6378 37.88 30.71C37.88 29.7822 37.1279 29.03 36.2 29.03C35.2722 29.03 34.52 29.7822 34.52 30.71C34.52 31.6378 35.2722 32.39 36.2 32.39Z" fill="white"/>
<path d="M46.28 32.39C47.2078 32.39 47.96 31.6378 47.96 30.71C47.96 29.7822 47.2078 29.03 46.28 29.03C45.3521 29.03 44.6 29.7822 44.6 30.71C44.6 31.6378 45.3521 32.39 46.28 32.39Z" fill="white"/>
<path d="M37.04 30.71C37.5039 30.71 37.88 30.3339 37.88 29.87C37.88 29.4061 37.5039 29.03 37.04 29.03C36.5761 29.03 36.2 29.4061 36.2 29.87C36.2 30.3339 36.5761 30.71 37.04 30.71Z" fill="white"/>
<path d="M47.12 30.71C47.5839 30.71 47.96 30.3339 47.96 29.87C47.96 29.4061 47.5839 29.03 47.12 29.03C46.6561 29.03 46.28 29.4061 46.28 29.87C46.28 30.3339 46.6561 30.71 47.12 30.71Z" fill="white"/>
<path opacity="0.8" d="M42.5 38.27C50.6186 38.27 57.2 35.4494 57.2 31.97C57.2 28.4906 50.6186 25.67 42.5 25.67C34.3814 25.67 27.8 28.4906 27.8 31.97C27.8 35.4494 34.3814 38.27 42.5 38.27Z" stroke="#00C950" stroke-width="1.26"/>
<path d="M55.1 29.87H29.9C28.7402 29.87 27.8 30.8102 27.8 31.97C27.8 33.1298 28.7402 34.07 29.9 34.07H55.1C56.2598 34.07 57.2 33.1298 57.2 31.97C57.2 30.8102 56.2598 29.87 55.1 29.87Z" fill="#00C950" fill-opacity="0.2"/>
<path d="M42.5 38.69C43.4278 38.69 44.18 38.1259 44.18 37.43C44.18 36.7341 43.4278 36.17 42.5 36.17C41.5722 36.17 40.82 36.7341 40.82 37.43C40.82 38.1259 41.5722 38.69 42.5 38.69Z" fill="url(#paint6_linear_8_1123)"/>
<path d="M40.4 40.37C41.8 41.77 43.2 41.77 44.6 40.37" stroke="#1E2939" stroke-width="0.84" stroke-linecap="round"/>
<path d="M32 76.07C33.8557 76.07 35.36 73.2494 35.36 69.77C35.36 66.2906 33.8557 63.47 32 63.47C30.1443 63.47 28.64 66.2906 28.64 69.77C28.64 73.2494 30.1443 76.07 32 76.07Z" fill="url(#paint7_linear_8_1123)"/>
<path d="M53 76.07C54.8557 76.07 56.36 73.2494 56.36 69.77C56.36 66.2906 54.8557 63.47 53 63.47C51.1443 63.47 49.64 66.2906 49.64 69.77C49.64 73.2494 51.1443 76.07 53 76.07Z" fill="url(#paint8_linear_8_1123)"/>
<path d="M32 76.49C33.3917 76.49 34.52 75.3618 34.52 73.97C34.52 72.5783 33.3917 71.45 32 71.45C30.6082 71.45 29.48 72.5783 29.48 73.97C29.48 75.3618 30.6082 76.49 32 76.49Z" fill="#1E2939"/>
<path d="M53 76.49C54.3917 76.49 55.52 75.3618 55.52 73.97C55.52 72.5783 54.3917 71.45 53 71.45C51.6082 71.45 50.48 72.5783 50.48 73.97C50.48 75.3618 51.6082 76.49 53 76.49Z" fill="#1E2939"/>
<path d="M54.8239 57.4459C56.7921 59.4141 59.4514 59.946 60.7636 58.6338C62.0758 57.3217 61.5439 54.6624 59.5757 52.6941C57.6074 50.7259 54.9481 50.194 53.636 51.5062C52.3238 52.8184 52.8557 55.4776 54.8239 57.4459Z" fill="url(#paint9_linear_8_1123)"/>
<path opacity="0.8" d="M45.02 21.47H39.98C39.0521 21.47 38.3 22.2222 38.3 23.15C38.3 24.0778 39.0521 24.83 39.98 24.83H45.02C45.9478 24.83 46.7 24.0778 46.7 23.15C46.7 22.2222 45.9478 21.47 45.02 21.47Z" fill="#00C950"/>
<path d="M40.4 23.99C40.8639 23.99 41.24 23.6139 41.24 23.15C41.24 22.6861 40.8639 22.31 40.4 22.31C39.9361 22.31 39.56 22.6861 39.56 23.15C39.56 23.6139 39.9361 23.99 40.4 23.99Z" fill="white"/>
<path d="M44.6 23.99C45.0639 23.99 45.44 23.6139 45.44 23.15C45.44 22.6861 45.0639 22.31 44.6 22.31C44.1361 22.31 43.76 22.6861 43.76 23.15C43.76 23.6139 44.1361 23.99 44.6 23.99Z" fill="white"/>
<g opacity="0.6">
<path d="M13.1 17.27L13.94 18.95H15.62L14.36 20.21L14.78 21.89L13.1 20.63L11.42 21.89L11.84 20.21L10.58 18.95H12.26L13.1 17.27Z" fill="#FBBF24"/>
<path d="M67.7 46.67L68.54 48.35H70.22L68.96 49.61L69.38 51.29L67.7 50.03L66.02 51.29L66.44 49.61L65.18 48.35H66.86L67.7 46.67Z" fill="#06D6A0"/>
</g>
<defs>
<linearGradient id="paint0_linear_8_1123" x1="23.6" y1="44.57" x2="2873.14" y2="3708.26" gradientUnits="userSpaceOnUse">
<stop stop-color="#22D3EE"/>
<stop offset="0.5" stop-color="#3B82F6"/>
<stop offset="1" stop-color="#8B5CF6"/>
</linearGradient>
<linearGradient id="paint1_linear_8_1123" x1="25.7" y1="17.27" x2="3385.7" y2="3377.27" gradientUnits="userSpaceOnUse">
<stop stop-color="#22D3EE"/>
<stop offset="0.5" stop-color="#3B82F6"/>
<stop offset="1" stop-color="#8B5CF6"/>
</linearGradient>
<linearGradient id="paint2_linear_8_1123" x1="20.7108" y1="17.2487" x2="2431.69" y2="475.158" gradientUnits="userSpaceOnUse">
<stop stop-color="#FF4500"/>
<stop offset="1" stop-color="#EC4899"/>
</linearGradient>
<linearGradient id="paint3_linear_8_1123" x1="50.5858" y1="10.8588" x2="1249.56" y2="2152.11" gradientUnits="userSpaceOnUse">
<stop stop-color="#FF4500"/>
<stop offset="1" stop-color="#EC4899"/>
</linearGradient>
<radialGradient id="paint4_radial_8_1123" cx="0" cy="0" r="1" gradientUnits="userSpaceOnUse" gradientTransform="translate(536.42 329.33) scale(5.04)">
<stop stop-color="#06B6D4"/>
<stop offset="0.7" stop-color="#1E40AF"/>
<stop offset="1" stop-color="#312E81"/>
</radialGradient>
<radialGradient id="paint5_radial_8_1123" cx="0" cy="0" r="1" gradientUnits="userSpaceOnUse" gradientTransform="translate(546.5 329.33) scale(5.04)">
<stop stop-color="#06B6D4"/>
<stop offset="0.7" stop-color="#1E40AF"/>
<stop offset="1" stop-color="#312E81"/>
</radialGradient>
<linearGradient id="paint6_linear_8_1123" x1="40.82" y1="36.17" x2="282.74" y2="358.73" gradientUnits="userSpaceOnUse">
<stop stop-color="#EC4899"/>
<stop offset="1" stop-color="#BE185D"/>
</linearGradient>
<linearGradient id="paint7_linear_8_1123" x1="28.64" y1="63.47" x2="1075.01" y2="621.532" gradientUnits="userSpaceOnUse">
<stop stop-color="#22D3EE"/>
<stop offset="0.5" stop-color="#3B82F6"/>
<stop offset="1" stop-color="#8B5CF6"/>
</linearGradient>
<linearGradient id="paint8_linear_8_1123" x1="49.64" y1="63.47" x2="1096.01" y2="621.532" gradientUnits="userSpaceOnUse">
<stop stop-color="#22D3EE"/>
<stop offset="0.5" stop-color="#3B82F6"/>
<stop offset="1" stop-color="#8B5CF6"/>
</linearGradient>
<linearGradient id="paint9_linear_8_1123" x1="56.0118" y1="49.1303" x2="-163.3" y2="1145.69" gradientUnits="userSpaceOnUse">
<stop stop-color="#22D3EE"/>
<stop offset="0.5" stop-color="#3B82F6"/>
<stop offset="1" stop-color="#8B5CF6"/>
</linearGradient>
</defs>
</svg>
