<svg width="97" height="168" viewBox="0 0 97 168" fill="none" xmlns="http://www.w3.org/2000/svg">
<path d="M48.5 129.6C64.4058 129.6 77.3 127.451 77.3 124.8C77.3 122.149 64.4058 120 48.5 120C32.5942 120 19.7 122.149 19.7 124.8C19.7 127.451 32.5942 129.6 48.5 129.6Z" fill="black" fill-opacity="0.2"/>
<path d="M48.5 120C60.4293 120 70.1 112.478 70.1 103.2C70.1 93.9216 60.4293 86.4 48.5 86.4C36.5706 86.4 26.9 93.9216 26.9 103.2C26.9 112.478 36.5706 120 48.5 120Z" fill="url(#paint0_linear_8_1581)"/>
<path d="M48.5 93.5999C59.1039 93.5999 67.7 85.0038 67.7 74.4C67.7 63.7961 59.1039 55.2 48.5 55.2C37.8961 55.2 29.3 63.7961 29.3 74.4C29.3 85.0038 37.8961 93.5999 48.5 93.5999Z" fill="url(#paint1_linear_8_1581)"/>
<path d="M41.5714 73.2758C45.8961 71.2591 47.1314 64.7551 44.3305 58.7486C41.5296 52.7422 35.7533 49.5077 31.4286 51.5244C27.1039 53.541 25.8686 60.045 28.6695 66.0515C31.4704 72.058 37.2467 75.2924 41.5714 73.2758Z" fill="url(#paint2_linear_8_1581)"/>
<path d="M55.4286 73.2757C59.7532 75.2924 65.5296 72.0579 68.3305 66.0515C71.1314 60.045 69.8961 53.541 65.5714 51.5243C61.2467 49.5077 55.4704 52.7421 52.6695 58.7486C49.8686 64.7551 51.1039 71.2591 55.4286 73.2757Z" fill="url(#paint3_linear_8_1581)"/>
<path d="M39.5429 70.3654C41.9455 69.2451 42.5308 65.4153 40.8503 61.8114C39.1698 58.2075 35.8598 56.1942 33.4572 57.3146C31.0546 58.4349 30.4692 62.2647 32.1498 65.8686C33.8303 69.4724 37.1403 71.4858 39.5429 70.3654Z" fill="#1E2939"/>
<path d="M57.4572 70.3654C59.8598 71.4858 63.1698 69.4724 64.8503 65.8686C66.5308 62.2647 65.9455 58.4349 63.5429 57.3146C61.1403 56.1942 57.8303 58.2075 56.1497 61.8114C54.4692 65.4153 55.0546 69.2451 57.4572 70.3654Z" fill="#1E2939"/>
<path opacity="0.9" d="M48.5 81.6C55.1274 81.6 60.5 77.302 60.5 72C60.5 66.6981 55.1274 62.4 48.5 62.4C41.8726 62.4 36.5 66.6981 36.5 72C36.5 77.302 41.8726 81.6 48.5 81.6Z" fill="#F8FAFC"/>
<path d="M42.74 77.76C45.9212 77.76 48.5 75.1812 48.5 72C48.5 68.8188 45.9212 66.24 42.74 66.24C39.5589 66.24 36.98 68.8188 36.98 72C36.98 75.1812 39.5589 77.76 42.74 77.76Z" fill="url(#paint4_radial_8_1581)"/>
<path d="M48.5 69.6C52.34 68.96 56.18 68.96 60.02 69.6" stroke="#1E2939" stroke-width="1.44" stroke-linecap="round"/>
<path d="M41.3 72.48C42.3604 72.48 43.22 71.6204 43.22 70.56C43.22 69.4996 42.3604 68.64 41.3 68.64C40.2396 68.64 39.38 69.4996 39.38 70.56C39.38 71.6204 40.2396 72.48 41.3 72.48Z" fill="white"/>
<path d="M42.26 70.56C42.7902 70.56 43.22 70.1302 43.22 69.6C43.22 69.0698 42.7902 68.64 42.26 68.64C41.7298 68.64 41.3 69.0698 41.3 69.6C41.3 70.1302 41.7298 70.56 42.26 70.56Z" fill="white"/>
<path opacity="0.8" d="M48.5 79.2C57.7784 79.2 65.3 75.9765 65.3 72C65.3 68.0236 57.7784 64.8 48.5 64.8C39.2216 64.8 31.7 68.0236 31.7 72C31.7 75.9765 39.2216 79.2 48.5 79.2Z" stroke="#00C950" stroke-width="1.44"/>
<path d="M62.9 69.6H34.1C32.7745 69.6 31.7 70.6745 31.7 72C31.7 73.3255 32.7745 74.4 34.1 74.4H62.9C64.2255 74.4 65.3 73.3255 65.3 72C65.3 70.6745 64.2255 69.6 62.9 69.6Z" fill="#00C950" fill-opacity="0.2"/>
<path d="M48.5 79.68C49.5604 79.68 50.42 79.0353 50.42 78.24C50.42 77.4448 49.5604 76.8 48.5 76.8C47.4396 76.8 46.58 77.4448 46.58 78.24C46.58 79.0353 47.4396 79.68 48.5 79.68Z" fill="url(#paint5_linear_8_1581)"/>
<path d="M46.1 81.6C47.7 83.2 49.3 83.2 50.9 81.6" stroke="#1E2939" stroke-width="0.96" stroke-linecap="round"/>
<path d="M36.5 122.4C38.6208 122.4 40.34 119.176 40.34 115.2C40.34 111.224 38.6208 108 36.5 108C34.3792 108 32.66 111.224 32.66 115.2C32.66 119.176 34.3792 122.4 36.5 122.4Z" fill="url(#paint6_linear_8_1581)"/>
<path d="M60.5 122.4C62.6208 122.4 64.34 119.176 64.34 115.2C64.34 111.224 62.6208 108 60.5 108C58.3792 108 56.66 111.224 56.66 115.2C56.66 119.176 58.3792 122.4 60.5 122.4Z" fill="url(#paint7_linear_8_1581)"/>
<path d="M36.5 122.88C38.0906 122.88 39.38 121.591 39.38 120C39.38 118.409 38.0906 117.12 36.5 117.12C34.9094 117.12 33.62 118.409 33.62 120C33.62 121.591 34.9094 122.88 36.5 122.88Z" fill="#1E2939"/>
<path d="M60.5 122.88C62.0906 122.88 63.38 121.591 63.38 120C63.38 118.409 62.0906 117.12 60.5 117.12C58.9094 117.12 57.62 118.409 57.62 120C57.62 121.591 58.9094 122.88 60.5 122.88Z" fill="#1E2939"/>
<path d="M62.5845 101.115C64.8339 103.365 67.8731 103.973 69.3727 102.473C70.8723 100.973 70.2645 97.9342 68.0151 95.6848C65.7657 93.4353 62.7265 92.8275 61.2268 94.3271C59.7272 95.8267 60.3351 98.8659 62.5845 101.115Z" fill="url(#paint8_linear_8_1581)"/>
<path opacity="0.8" d="M51.38 60H45.62C44.5596 60 43.7 60.8596 43.7 61.92C43.7 62.9804 44.5596 63.84 45.62 63.84H51.38C52.4404 63.84 53.3 62.9804 53.3 61.92C53.3 60.8596 52.4404 60 51.38 60Z" fill="#00C950"/>
<path d="M46.1 62.88C46.6302 62.88 47.06 62.4502 47.06 61.92C47.06 61.3898 46.6302 60.96 46.1 60.96C45.5698 60.96 45.14 61.3898 45.14 61.92C45.14 62.4502 45.5698 62.88 46.1 62.88Z" fill="white"/>
<path d="M50.9 62.88C51.4302 62.88 51.86 62.4502 51.86 61.92C51.86 61.3898 51.4302 60.96 50.9 60.96C50.3698 60.96 49.94 61.3898 49.94 61.92C49.94 62.4502 50.3698 62.88 50.9 62.88Z" fill="white"/>
<g opacity="0.6">
<path d="M14.9 55.2L15.86 57.12H17.78L16.34 58.56L16.82 60.48L14.9 59.04L12.98 60.48L13.46 58.56L12.02 57.12H13.94L14.9 55.2Z" fill="#FBBF24"/>
<path d="M77.3 88.7999L78.26 90.7199H80.18L78.74 92.1599L79.22 94.0799L77.3 92.6399L75.38 94.0799L75.86 92.1599L74.42 90.7199H76.34L77.3 88.7999Z" fill="#06D6A0"/>
</g>
<defs>
<linearGradient id="paint0_linear_8_1581" x1="26.9" y1="86.4" x2="3283.52" y2="4273.48" gradientUnits="userSpaceOnUse">
<stop stop-color="#FDC700"/>
<stop offset="0.5" stop-color="#FF4500"/>
<stop offset="1" stop-color="#FF4500"/>
</linearGradient>
<linearGradient id="paint1_linear_8_1581" x1="29.3" y1="55.2" x2="3869.3" y2="3895.2" gradientUnits="userSpaceOnUse">
<stop stop-color="#FDC700"/>
<stop offset="0.5" stop-color="#FF4500"/>
<stop offset="1" stop-color="#FF4500"/>
</linearGradient>
<linearGradient id="paint2_linear_8_1581" x1="23.5981" y1="55.1758" x2="2779" y2="578.501" gradientUnits="userSpaceOnUse">
<stop stop-color="#FFB347"/>
<stop offset="1" stop-color="#FF6347"/>
</linearGradient>
<linearGradient id="paint3_linear_8_1581" x1="57.7409" y1="47.8729" x2="1427.99" y2="2495.02" gradientUnits="userSpaceOnUse">
<stop stop-color="#FFB347"/>
<stop offset="1" stop-color="#FF6347"/>
</linearGradient>
<radialGradient id="paint4_radial_8_1581" cx="0" cy="0" r="1" gradientUnits="userSpaceOnUse" gradientTransform="translate(612.98 411.84) scale(5.76)">
<stop stop-color="#06B6D4"/>
<stop offset="0.7" stop-color="#1E40AF"/>
<stop offset="1" stop-color="#312E81"/>
</radialGradient>
<linearGradient id="paint5_linear_8_1581" x1="46.58" y1="76.8" x2="323.06" y2="445.44" gradientUnits="userSpaceOnUse">
<stop stop-color="#EC4899"/>
<stop offset="1" stop-color="#BE185D"/>
</linearGradient>
<linearGradient id="paint6_linear_8_1581" x1="32.66" y1="108" x2="1228.51" y2="745.785" gradientUnits="userSpaceOnUse">
<stop stop-color="#FDC700"/>
<stop offset="0.5" stop-color="#FF4500"/>
<stop offset="1" stop-color="#FF4500"/>
</linearGradient>
<linearGradient id="paint7_linear_8_1581" x1="56.66" y1="108" x2="1252.51" y2="745.785" gradientUnits="userSpaceOnUse">
<stop stop-color="#FDC700"/>
<stop offset="0.5" stop-color="#FF4500"/>
<stop offset="1" stop-color="#FF4500"/>
</linearGradient>
<linearGradient id="paint8_linear_8_1581" x1="63.9421" y1="91.6118" x2="-186.7" y2="1344.82" gradientUnits="userSpaceOnUse">
<stop stop-color="#FDC700"/>
<stop offset="0.5" stop-color="#FF4500"/>
<stop offset="1" stop-color="#FF4500"/>
</linearGradient>
</defs>
</svg>
