<svg width="84" height="84" viewBox="0 0 84 84" fill="none" xmlns="http://www.w3.org/2000/svg">
<path d="M42 81.9C55.9176 81.9 67.2 80.0196 67.2 77.7C67.2 75.3804 55.9176 73.5 42 73.5C28.0824 73.5 16.8 75.3804 16.8 77.7C16.8 80.0196 28.0824 81.9 42 81.9Z" fill="black" fill-opacity="0.2"/>
<path d="M42 73.5C52.4382 73.5 60.9 66.9186 60.9 58.8C60.9 50.6814 52.4382 44.1 42 44.1C31.5618 44.1 23.1 50.6814 23.1 58.8C23.1 66.9186 31.5618 73.5 42 73.5Z" fill="url(#paint0_linear_8_1275)"/>
<path d="M42 50.4C51.2784 50.4 58.8 42.8784 58.8 33.6C58.8 24.3216 51.2784 16.8 42 16.8C32.7216 16.8 25.2 24.3216 25.2 33.6C25.2 42.8784 32.7216 50.4 42 50.4Z" fill="url(#paint1_linear_8_1275)"/>
<path d="M35.9375 32.6162C39.7216 30.8517 40.8024 25.1607 38.3517 19.905C35.9009 14.6493 30.8466 11.8192 27.0625 13.5838C23.2784 15.3483 22.1975 21.0393 24.6483 26.295C27.0991 31.5507 32.1534 34.3808 35.9375 32.6162Z" fill="url(#paint2_linear_8_1275)"/>
<path d="M48.0625 32.6162C51.8466 34.3808 56.9009 31.5507 59.3517 26.295C61.8025 21.0393 60.7216 15.3483 56.9375 13.5838C53.1534 11.8192 48.0991 14.6493 45.6483 19.905C43.1976 25.1607 44.2784 30.8517 48.0625 32.6162Z" fill="url(#paint3_linear_8_1275)"/>
<path d="M34.1625 30.0697C36.2648 29.0894 36.7769 25.7384 35.3065 22.585C33.836 19.4316 30.9398 17.67 28.8375 18.6503C26.7352 19.6306 26.223 22.9816 27.6935 26.135C29.164 29.2884 32.0602 31.0501 34.1625 30.0697Z" fill="#1E2939"/>
<path d="M49.8375 30.0698C51.9398 31.0501 54.8361 29.2884 56.3065 26.135C57.777 22.9816 57.2648 19.6306 55.1625 18.6503C53.0602 17.67 50.164 19.4316 48.6935 22.585C47.2231 25.7384 47.7353 29.0894 49.8375 30.0698Z" fill="#1E2939"/>
<path opacity="0.9" d="M42 39.9C47.799 39.9 52.5 36.1392 52.5 31.5C52.5 26.8608 47.799 23.1 42 23.1C36.201 23.1 31.5 26.8608 31.5 31.5C31.5 36.1392 36.201 39.9 42 39.9Z" fill="#F8FAFC"/>
<path d="M36.96 36.54C39.7435 36.54 42 34.2835 42 31.5C42 28.7165 39.7435 26.46 36.96 26.46C34.1765 26.46 31.92 28.7165 31.92 31.5C31.92 34.2835 34.1765 36.54 36.96 36.54Z" fill="url(#paint4_radial_8_1275)"/>
<path d="M42 29.4C45.36 28.84 48.72 28.84 52.08 29.4" stroke="#1E2939" stroke-width="1.26" stroke-linecap="round"/>
<path d="M35.7 31.92C36.6279 31.92 37.38 31.1678 37.38 30.24C37.38 29.3122 36.6279 28.56 35.7 28.56C34.7722 28.56 34.02 29.3122 34.02 30.24C34.02 31.1678 34.7722 31.92 35.7 31.92Z" fill="white"/>
<path d="M36.54 30.24C37.0039 30.24 37.38 29.8639 37.38 29.4C37.38 28.9361 37.0039 28.56 36.54 28.56C36.0761 28.56 35.7 28.9361 35.7 29.4C35.7 29.8639 36.0761 30.24 36.54 30.24Z" fill="white"/>
<path opacity="0.8" d="M42 37.8C50.1186 37.8 56.7 34.9794 56.7 31.5C56.7 28.0206 50.1186 25.2 42 25.2C33.8814 25.2 27.3 28.0206 27.3 31.5C27.3 34.9794 33.8814 37.8 42 37.8Z" stroke="#00C950" stroke-width="1.26"/>
<path d="M54.6 29.4H29.4C28.2402 29.4 27.3 30.3402 27.3 31.5C27.3 32.6598 28.2402 33.6 29.4 33.6H54.6C55.7598 33.6 56.7 32.6598 56.7 31.5C56.7 30.3402 55.7598 29.4 54.6 29.4Z" fill="#00C950" fill-opacity="0.2"/>
<path d="M42 38.22C42.9278 38.22 43.68 37.6559 43.68 36.96C43.68 36.2641 42.9278 35.7 42 35.7C41.0722 35.7 40.32 36.2641 40.32 36.96C40.32 37.6559 41.0722 38.22 42 38.22Z" fill="url(#paint5_linear_8_1275)"/>
<path d="M39.9 39.9C41.3 41.3 42.7 41.3 44.1 39.9" stroke="#1E2939" stroke-width="0.84" stroke-linecap="round"/>
<path d="M31.5 75.6C33.3557 75.6 34.86 72.7794 34.86 69.3C34.86 65.8206 33.3557 63 31.5 63C29.6443 63 28.14 65.8206 28.14 69.3C28.14 72.7794 29.6443 75.6 31.5 75.6Z" fill="url(#paint6_linear_8_1275)"/>
<path d="M52.5 75.6C54.3557 75.6 55.86 72.7794 55.86 69.3C55.86 65.8206 54.3557 63 52.5 63C50.6443 63 49.14 65.8206 49.14 69.3C49.14 72.7794 50.6443 75.6 52.5 75.6Z" fill="url(#paint7_linear_8_1275)"/>
<path d="M31.5 76.02C32.8917 76.02 34.02 74.8917 34.02 73.5C34.02 72.1082 32.8917 70.98 31.5 70.98C30.1082 70.98 28.98 72.1082 28.98 73.5C28.98 74.8917 30.1082 76.02 31.5 76.02Z" fill="#1E2939"/>
<path d="M52.5 76.02C53.8917 76.02 55.02 74.8917 55.02 73.5C55.02 72.1082 53.8917 70.98 52.5 70.98C51.1082 70.98 49.98 72.1082 49.98 73.5C49.98 74.8917 51.1082 76.02 52.5 76.02Z" fill="#1E2939"/>
<path d="M54.3239 56.9759C56.2921 58.9441 58.9514 59.476 60.2636 58.1638C61.5758 56.8517 61.0439 54.1924 59.0757 52.2241C57.1074 50.2559 54.4481 49.724 53.136 51.0362C51.8238 52.3484 52.3557 55.0077 54.3239 56.9759Z" fill="url(#paint8_linear_8_1275)"/>
<path opacity="0.8" d="M44.52 21H39.48C38.5521 21 37.8 21.7522 37.8 22.68C37.8 23.6078 38.5521 24.36 39.48 24.36H44.52C45.4478 24.36 46.2 23.6078 46.2 22.68C46.2 21.7522 45.4478 21 44.52 21Z" fill="#00C950"/>
<path d="M39.9 23.52C40.3639 23.52 40.74 23.1439 40.74 22.68C40.74 22.2161 40.3639 21.84 39.9 21.84C39.4361 21.84 39.06 22.2161 39.06 22.68C39.06 23.1439 39.4361 23.52 39.9 23.52Z" fill="white"/>
<path d="M44.1 23.52C44.5639 23.52 44.94 23.1439 44.94 22.68C44.94 22.2161 44.5639 21.84 44.1 21.84C43.6361 21.84 43.26 22.2161 43.26 22.68C43.26 23.1439 43.6361 23.52 44.1 23.52Z" fill="white"/>
<g opacity="0.6">
<path d="M12.6 16.8L13.44 18.48H15.12L13.86 19.74L14.28 21.42L12.6 20.16L10.92 21.42L11.34 19.74L10.08 18.48H11.76L12.6 16.8Z" fill="#FBBF24"/>
<path d="M67.2 46.2L68.04 47.88H69.72L68.46 49.14L68.88 50.82L67.2 49.56L65.52 50.82L65.94 49.14L64.68 47.88H66.36L67.2 46.2Z" fill="#06D6A0"/>
</g>
<defs>
<linearGradient id="paint0_linear_8_1275" x1="23.1" y1="44.1" x2="2872.64" y2="3707.79" gradientUnits="userSpaceOnUse">
<stop stop-color="#00FF80"/>
<stop offset="0.5" stop-color="#00CCFF"/>
<stop offset="1" stop-color="#8000FF"/>
</linearGradient>
<linearGradient id="paint1_linear_8_1275" x1="25.2" y1="16.8" x2="3385.2" y2="3376.8" gradientUnits="userSpaceOnUse">
<stop stop-color="#00FF80"/>
<stop offset="0.5" stop-color="#00CCFF"/>
<stop offset="1" stop-color="#8000FF"/>
</linearGradient>
<linearGradient id="paint2_linear_8_1275" x1="20.2108" y1="16.7787" x2="2431.19" y2="474.688" gradientUnits="userSpaceOnUse">
<stop stop-color="#FF0080"/>
<stop offset="1" stop-color="#FDC700"/>
</linearGradient>
<linearGradient id="paint3_linear_8_1275" x1="50.0858" y1="10.3888" x2="1249.06" y2="2151.64" gradientUnits="userSpaceOnUse">
<stop stop-color="#FF0080"/>
<stop offset="1" stop-color="#FDC700"/>
</linearGradient>
<radialGradient id="paint4_radial_8_1275" cx="0" cy="0" r="1" gradientUnits="userSpaceOnUse" gradientTransform="translate(535.92 328.86) scale(5.04)">
<stop stop-color="#06B6D4"/>
<stop offset="0.7" stop-color="#1E40AF"/>
<stop offset="1" stop-color="#312E81"/>
</radialGradient>
<linearGradient id="paint5_linear_8_1275" x1="40.32" y1="35.7" x2="282.24" y2="358.26" gradientUnits="userSpaceOnUse">
<stop stop-color="#EC4899"/>
<stop offset="1" stop-color="#BE185D"/>
</linearGradient>
<linearGradient id="paint6_linear_8_1275" x1="28.14" y1="63" x2="1074.51" y2="621.062" gradientUnits="userSpaceOnUse">
<stop stop-color="#00FF80"/>
<stop offset="0.5" stop-color="#00CCFF"/>
<stop offset="1" stop-color="#8000FF"/>
</linearGradient>
<linearGradient id="paint7_linear_8_1275" x1="49.14" y1="63" x2="1095.51" y2="621.062" gradientUnits="userSpaceOnUse">
<stop stop-color="#00FF80"/>
<stop offset="0.5" stop-color="#00CCFF"/>
<stop offset="1" stop-color="#8000FF"/>
</linearGradient>
<linearGradient id="paint8_linear_8_1275" x1="55.5118" y1="48.6603" x2="-163.8" y2="1145.22" gradientUnits="userSpaceOnUse">
<stop stop-color="#00FF80"/>
<stop offset="0.5" stop-color="#00CCFF"/>
<stop offset="1" stop-color="#8000FF"/>
</linearGradient>
</defs>
</svg>
