<svg width="151" height="169" viewBox="0 0 151 169" fill="none" xmlns="http://www.w3.org/2000/svg">
<path d="M75.875 155.869C100.769 155.869 120.95 152.505 120.95 148.356C120.95 144.207 100.769 140.844 75.875 140.844C50.9808 140.844 30.8 144.207 30.8 148.356C30.8 152.505 50.9808 155.869 75.875 155.869Z" fill="black" fill-opacity="0.2"/>
<path d="M75.875 140.844C94.5457 140.844 109.681 129.072 109.681 114.55C109.681 100.028 94.5457 88.2563 75.875 88.2563C57.2043 88.2563 42.0688 100.028 42.0688 114.55C42.0688 129.072 57.2043 140.844 75.875 140.844Z" fill="url(#paint0_linear_1_2196)"/>
<path d="M75.875 99.5251C92.4712 99.5251 105.925 86.0712 105.925 69.475C105.925 52.8789 92.4712 39.425 75.875 39.425C59.2789 39.425 45.825 52.8789 45.825 69.475C45.825 86.0712 59.2789 99.5251 75.875 99.5251Z" fill="url(#paint1_linear_1_2196)"/>
<path d="M65.031 67.7153C71.7996 64.5591 73.7329 54.3796 69.3493 44.9789C64.9656 35.5781 55.925 30.5159 49.1564 33.6721C42.3879 36.8283 40.4545 47.0078 44.8382 56.4086C49.2218 65.8093 58.2625 70.8715 65.031 67.7153Z" fill="url(#paint2_linear_1_2196)"/>
<path d="M86.719 67.7153C93.4875 70.8715 102.528 65.8093 106.912 56.4086C111.295 47.0078 109.362 36.8284 102.594 33.6721C95.825 30.5159 86.7844 35.5781 82.4007 44.9789C78.0171 54.3796 79.9504 64.5591 86.719 67.7153Z" fill="url(#paint3_linear_1_2196)"/>
<path d="M61.8562 63.1604C65.6165 61.407 66.5326 55.413 63.9024 49.7725C61.2722 44.1321 56.0917 40.981 52.3314 42.7345C48.5711 44.488 47.655 50.4819 50.2851 56.1224C52.9153 61.7628 58.0959 64.9139 61.8562 63.1604Z" fill="#1E2939"/>
<path d="M89.8939 63.1604C93.6542 64.9139 98.8348 61.7628 101.465 56.1224C104.095 50.4819 103.179 44.4879 99.4187 42.7345C95.6584 40.981 90.4779 44.1321 87.8477 49.7725C85.2175 55.413 86.1336 61.4069 89.8939 63.1604Z" fill="#1E2939"/>
<path opacity="0.9" d="M75.875 80.7438C86.2476 80.7438 94.6562 74.0169 94.6562 65.7188C94.6562 57.4208 86.2476 50.6938 75.875 50.6938C65.5024 50.6938 57.0938 57.4208 57.0938 65.7188C57.0938 74.0169 65.5024 80.7438 75.875 80.7438Z" fill="#F8FAFC"/>
<path d="M66.86 74.7339C71.8388 74.7339 75.875 70.6977 75.875 65.7189C75.875 60.74 71.8388 56.7039 66.86 56.7039C61.8812 56.7039 57.845 60.74 57.845 65.7189C57.845 70.6977 61.8812 74.7339 66.86 74.7339Z" fill="url(#paint4_radial_1_2196)"/>
<path d="M84.89 74.7339C89.8688 74.7339 93.905 70.6977 93.905 65.7189C93.905 60.74 89.8688 56.7039 84.89 56.7039C79.9112 56.7039 75.875 60.74 75.875 65.7189C75.875 70.6977 79.9112 74.7339 84.89 74.7339Z" fill="url(#paint5_radial_1_2196)"/>
<path d="M64.6063 58.2062L66.1088 54.45H63.1038L64.6063 58.2062Z" fill="#FF0000"/>
<path d="M82.6362 58.2062L84.1387 54.45H81.1337L82.6362 58.2062Z" fill="#00FF00"/>
<path d="M64.6063 66.47C66.2659 66.47 67.6113 65.1246 67.6113 63.465C67.6113 61.8053 66.2659 60.46 64.6063 60.46C62.9466 60.46 61.6013 61.8053 61.6013 63.465C61.6013 65.1246 62.9466 66.47 64.6063 66.47Z" fill="white"/>
<path d="M82.6363 66.47C84.2959 66.47 85.6413 65.1246 85.6413 63.465C85.6413 61.8053 84.2959 60.46 82.6363 60.46C80.9766 60.46 79.6313 61.8053 79.6313 63.465C79.6313 65.1246 80.9766 66.47 82.6363 66.47Z" fill="white"/>
<path opacity="0.8" d="M75.875 76.9875C90.3966 76.9875 102.169 71.9423 102.169 65.7187C102.169 59.4951 90.3966 54.45 75.875 54.45C61.3534 54.45 49.5812 59.4951 49.5812 65.7187C49.5812 71.9423 61.3534 76.9875 75.875 76.9875Z" stroke="#00C950" stroke-width="2.25375"/>
<path d="M98.4125 61.9624H53.3375C51.263 61.9624 49.5812 63.6441 49.5812 65.7187C49.5812 67.7932 51.263 69.4749 53.3375 69.4749H98.4125C100.487 69.4749 102.169 67.7932 102.169 65.7187C102.169 63.6441 100.487 61.9624 98.4125 61.9624Z" fill="#10B981" fill-opacity="0.2"/>
<path d="M75.875 77.7387C77.5346 77.7387 78.88 76.7297 78.88 75.485C78.88 74.2402 77.5346 73.2312 75.875 73.2312C74.2154 73.2312 72.87 74.2402 72.87 75.485C72.87 76.7297 74.2154 77.7387 75.875 77.7387Z" fill="url(#paint6_linear_1_2196)"/>
<path d="M68.3625 80.7437C73.3708 85.752 78.3792 85.752 83.3875 80.7437" stroke="#1E2939" stroke-width="2.25375" stroke-linecap="round"/>
<path d="M57.0937 144.6C60.413 144.6 63.1037 139.555 63.1037 133.331C63.1037 127.108 60.413 122.062 57.0937 122.062C53.7745 122.062 51.0837 127.108 51.0837 133.331C51.0837 139.555 53.7745 144.6 57.0937 144.6Z" fill="url(#paint7_linear_1_2196)"/>
<path d="M94.6562 144.6C97.9755 144.6 100.666 139.555 100.666 133.331C100.666 127.108 97.9755 122.062 94.6562 122.062C91.337 122.062 88.6462 127.108 88.6462 133.331C88.6462 139.555 91.337 144.6 94.6562 144.6Z" fill="url(#paint8_linear_1_2196)"/>
<path d="M57.0937 145.351C59.5832 145.351 61.6012 143.333 61.6012 140.844C61.6012 138.354 59.5832 136.336 57.0937 136.336C54.6043 136.336 52.5862 138.354 52.5862 140.844C52.5862 143.333 54.6043 145.351 57.0937 145.351Z" fill="#1E2939"/>
<path d="M94.6562 145.351C97.1457 145.351 99.1637 143.333 99.1637 140.844C99.1637 138.354 97.1457 136.336 94.6562 136.336C92.1668 136.336 90.1487 138.354 90.1487 140.844C90.1487 143.333 92.1668 145.351 94.6562 145.351Z" fill="#1E2939"/>
<path d="M97.9187 111.287C101.439 114.808 106.196 115.759 108.543 113.412C110.89 111.065 109.939 106.308 106.418 102.788C102.898 99.2673 98.1409 98.316 95.7939 100.663C93.4468 103.01 94.3981 107.767 97.9187 111.287Z" fill="url(#paint9_linear_1_2196)"/>
<path opacity="0.8" d="M80.3825 46.9375H71.3675C69.7079 46.9375 68.3625 48.2829 68.3625 49.9425C68.3625 51.6021 69.7079 52.9475 71.3675 52.9475H80.3825C82.0421 52.9475 83.3875 51.6021 83.3875 49.9425C83.3875 48.2829 82.0421 46.9375 80.3825 46.9375Z" fill="#00C950"/>
<path d="M72.1187 51.4449C72.9485 51.4449 73.6212 50.7722 73.6212 49.9424C73.6212 49.1126 72.9485 48.4399 72.1187 48.4399C71.2889 48.4399 70.6162 49.1126 70.6162 49.9424C70.6162 50.7722 71.2889 51.4449 72.1187 51.4449Z" fill="white"/>
<path d="M79.6313 51.4449C80.4611 51.4449 81.1338 50.7722 81.1338 49.9424C81.1338 49.1126 80.4611 48.4399 79.6313 48.4399C78.8014 48.4399 78.1288 49.1126 78.1288 49.9424C78.1288 50.7722 78.8014 51.4449 79.6313 51.4449Z" fill="white"/>
<g opacity="0.9">
<path d="M23.2875 39.425L24.79 42.43H27.795L25.5412 44.6838L26.2925 47.6888L23.2875 45.435L20.2825 47.6888L21.0337 44.6838L18.78 42.43H21.785L23.2875 39.425Z" fill="#FBBF24"/>
<path d="M120.95 92.0125L122.453 95.0175H125.458L123.204 97.2712L123.955 100.276L120.95 98.0225L117.945 100.276L118.696 97.2712L116.443 95.0175H119.448L120.95 92.0125Z" fill="#06D6A0"/>
</g>
<defs>
<linearGradient id="paint0_linear_1_2196" x1="42.0688" y1="88.2563" x2="5139.01" y2="6641.47" gradientUnits="userSpaceOnUse">
<stop stop-color="#FF69B4"/>
<stop offset="0.5" stop-color="#00FFFF"/>
<stop offset="1" stop-color="#FF1493"/>
</linearGradient>
<linearGradient id="paint1_linear_1_2196" x1="45.825" y1="39.425" x2="6055.83" y2="6049.43" gradientUnits="userSpaceOnUse">
<stop stop-color="#FF69B4"/>
<stop offset="0.5" stop-color="#00FFFF"/>
<stop offset="1" stop-color="#FF1493"/>
</linearGradient>
<linearGradient id="paint2_linear_1_2196" x1="36.9009" y1="39.387" x2="4349.4" y2="858.445" gradientUnits="userSpaceOnUse">
<stop stop-color="#7FFFD4"/>
<stop offset="1" stop-color="#FF6347"/>
</linearGradient>
<linearGradient id="paint3_linear_1_2196" x1="90.338" y1="27.9573" x2="2234.93" y2="3858" gradientUnits="userSpaceOnUse">
<stop stop-color="#7FFFD4"/>
<stop offset="1" stop-color="#FF6347"/>
</linearGradient>
<radialGradient id="paint4_radial_1_2196" cx="0" cy="0" r="1" gradientUnits="userSpaceOnUse" gradientTransform="translate(959.345 597.604) scale(9.015)">
<stop stop-color="#06B6D4"/>
<stop offset="0.7" stop-color="#1E40AF"/>
<stop offset="1" stop-color="#312E81"/>
</radialGradient>
<radialGradient id="paint5_radial_1_2196" cx="0" cy="0" r="1" gradientUnits="userSpaceOnUse" gradientTransform="translate(977.375 597.604) scale(9.015)">
<stop stop-color="#06B6D4"/>
<stop offset="0.7" stop-color="#1E40AF"/>
<stop offset="1" stop-color="#312E81"/>
</radialGradient>
<linearGradient id="paint6_linear_1_2196" x1="72.87" y1="73.2312" x2="505.59" y2="650.191" gradientUnits="userSpaceOnUse">
<stop stop-color="#EC4899"/>
<stop offset="1" stop-color="#BE185D"/>
</linearGradient>
<linearGradient id="paint7_linear_1_2196" x1="51.0837" y1="122.062" x2="1922.71" y2="1120.26" gradientUnits="userSpaceOnUse">
<stop stop-color="#FF69B4"/>
<stop offset="0.5" stop-color="#00FFFF"/>
<stop offset="1" stop-color="#FF1493"/>
</linearGradient>
<linearGradient id="paint8_linear_1_2196" x1="88.6462" y1="122.062" x2="1960.27" y2="1120.26" gradientUnits="userSpaceOnUse">
<stop stop-color="#FF69B4"/>
<stop offset="0.5" stop-color="#00FFFF"/>
<stop offset="1" stop-color="#FF1493"/>
</linearGradient>
<linearGradient id="paint9_linear_1_2196" x1="100.044" y1="96.4133" x2="-292.238" y2="2057.82" gradientUnits="userSpaceOnUse">
<stop stop-color="#FF69B4"/>
<stop offset="0.5" stop-color="#00FFFF"/>
<stop offset="1" stop-color="#FF1493"/>
</linearGradient>
</defs>
</svg>
